<?xml version="1.0" encoding="UTF-8"?>
<svg width="120px" height="120px" viewBox="0 0 120 120" version="1.1" xmlns="http://www.w3.org/2000/svg" xmlns:xlink="http://www.w3.org/1999/xlink">
    <!-- Generator: sketchtool 41.2 (35397) - http://www.bohemiancoding.com/sketch -->
    <title>F34F9DD4-E48B-4391-99C3-012B96204587</title>
    <desc>Created with sketchtool.</desc>
    <defs>
        <filter x="-50%" y="-50%" width="200%" height="200%" filterUnits="objectBoundingBox" id="filter-1">
            <feOffset dx="0" dy="2" in="SourceAlpha" result="shadowOffsetOuter1"></feOffset>
            <feGaussianBlur stdDeviation="0.25" in="shadowOffsetOuter1" result="shadowBlurOuter1"></feGaussianBlur>
            <feColorMatrix values="0 0 0 0 0   0 0 0 0 0   0 0 0 0 0  0 0 0 0.24 0" type="matrix" in="shadowBlurOuter1" result="shadowMatrixOuter1"></feColorMatrix>
            <feMerge>
                <feMergeNode in="shadowMatrixOuter1"></feMergeNode>
                <feMergeNode in="SourceGraphic"></feMergeNode>
            </feMerge>
        </filter>
    </defs>
    <g id="Page-1" stroke="none" stroke-width="1" fill="none" fill-rule="evenodd">
        <g id="home_updated" transform="translate(-798.000000, -893.000000)">
            <g id="ic_delivery" transform="translate(798.000000, 893.000000)">
                <g id="quality-copy">
                    <circle id="Oval-16-Copy" fill="#FF7C7C" cx="48" cy="48" r="48"></circle>
                    <g id="Group-5" filter="url(#filter-1)" stroke-width="1" transform="translate(19.000000, 24.000000)">
                        <rect id="Rectangle-19" fill="#FFFFFF" x="4.21428571" y="13.3658009" width="50.5714286" height="26.0281385"></rect>
                        <g id="Group-4">
                            <g id="Group-3" transform="translate(0.000000, 13.365801)" fill="#338B37">
                                <path d="M4.9166614,0.153229489 C4.91388535,1.5106526 3.81431814,2.61019838 2.45833333,2.61019838 C1.10063332,2.61019838 0,1.50786917 0,0.14807717 C0,0.0983601741 0.0014713211,0.0489873527 0.00437273298,1.10080001e-12 L0.00437273298,0.153229489 L4.91666178,0.153229489 Z" id="Combined-Shape"></path>
                                <path d="M9.83332807,0.153229489 C9.83055202,1.5106526 8.7309848,2.61019838 7.375,2.61019838 C6.01729999,2.61019838 4.91666667,1.50786917 4.91666667,0.14807717 C4.91666667,0.0983601741 4.91813799,0.0489873527 4.9210394,1.10080001e-12 L4.9210394,0.153229489 L9.83332844,0.153229489 Z" id="Combined-Shape-Copy"></path>
                                <path d="M14.7499947,0.153229489 C14.7472187,1.5106526 13.6476515,2.61019838 12.2916667,2.61019838 C10.9339667,2.61019838 9.83333333,1.50786917 9.83333333,0.14807717 C9.83333333,0.0983601741 9.83480465,0.0489873527 9.83770607,1.10080001e-12 L9.83770607,0.153229489 L14.7499951,0.153229489 Z" id="Combined-Shape-Copy-2"></path>
                                <path d="M19.6666614,0.153229489 C19.6638854,1.5106526 18.5643181,2.61019838 17.2083333,2.61019838 C15.8506333,2.61019838 14.75,1.50786917 14.75,0.14807717 C14.75,0.0983601741 14.7514713,0.0489873527 14.7543727,1.10080001e-12 L14.7543727,0.153229489 L19.6666618,0.153229489 Z" id="Combined-Shape-Copy-3"></path>
                                <path d="M24.5833281,0.153229489 C24.580552,1.5106526 23.4809848,2.61019838 22.125,2.61019838 C20.7673,2.61019838 19.6666667,1.50786917 19.6666667,0.14807717 C19.6666667,0.0983601741 19.668138,0.0489873527 19.6710394,1.10080001e-12 L19.6710394,0.153229489 L24.5833284,0.153229489 Z" id="Combined-Shape-Copy-4"></path>
                                <path d="M29.4999947,0.153229489 C29.4972187,1.5106526 28.3976515,2.61019838 27.0416667,2.61019838 C25.6839667,2.61019838 24.5833333,1.50786917 24.5833333,0.14807717 C24.5833333,0.0983601741 24.5848047,0.0489873527 24.5877061,1.10080001e-12 L24.5877061,0.153229489 L29.4999951,0.153229489 Z" id="Combined-Shape-Copy-5"></path>
                                <path d="M34.4166614,0.153229489 C34.4138854,1.5106526 33.3143181,2.61019838 31.9583333,2.61019838 C30.6006333,2.61019838 29.5,1.50786917 29.5,0.14807717 C29.5,0.0983601741 29.5014713,0.0489873527 29.5043727,1.10080001e-12 L29.5043727,0.153229489 L34.4166618,0.153229489 Z" id="Combined-Shape-Copy-6"></path>
                                <path d="M39.3333281,0.153229489 C39.330552,1.5106526 38.2309848,2.61019838 36.875,2.61019838 C35.5173,2.61019838 34.4166667,1.50786917 34.4166667,0.14807717 C34.4166667,0.0983601741 34.418138,0.0489873527 34.4210394,1.10080001e-12 L34.4210394,0.153229489 L39.3333284,0.153229489 Z" id="Combined-Shape-Copy-7"></path>
                                <path d="M44.2499947,0.153229489 C44.2472187,1.5106526 43.1476515,2.61019838 41.7916667,2.61019838 C40.4339667,2.61019838 39.3333333,1.50786917 39.3333333,0.14807717 C39.3333333,0.0983601741 39.3348047,0.0489873527 39.3377061,1.10080001e-12 L39.3377061,0.153229489 L44.2499951,0.153229489 Z" id="Combined-Shape-Copy-8"></path>
                                <path d="M49.1666614,0.153229489 C49.1638854,1.5106526 48.0643181,2.61019838 46.7083333,2.61019838 C45.3506333,2.61019838 44.25,1.50786917 44.25,0.14807717 C44.25,0.0983601741 44.2514713,0.0489873527 44.2543727,1.10080001e-12 L44.2543727,0.153229489 L49.1666618,0.153229489 Z" id="Combined-Shape-Copy-9"></path>
                                <path d="M54.0833281,0.153229489 C54.080552,1.5106526 52.9809848,2.61019838 51.625,2.61019838 C50.2673,2.61019838 49.1666667,1.50786917 49.1666667,0.14807717 C49.1666667,0.0983601741 49.168138,0.0489873527 49.1710394,1.10080001e-12 L49.1710394,0.153229489 L54.0833284,0.153229489 Z" id="Combined-Shape-Copy-10"></path>
                                <path d="M58.9999947,0.153229489 C58.9972187,1.5106526 57.8976515,2.61019838 56.5416667,2.61019838 C55.1839667,2.61019838 54.0833333,1.50786917 54.0833333,0.14807717 C54.0833333,0.0983601741 54.0848047,0.0489873527 54.0877061,1.10080001e-12 L54.0877061,0.153229489 L58.9999951,0.153229489 Z" id="Combined-Shape-Copy-11"></path>
                            </g>
                            <g id="Group-2">
                                <polygon id="Rectangle-17" fill="#338B37" points="4.91666667 0 4.91666667 14.0692641 0 14.0692641 0 13.424709"></polygon>
                                <rect id="Rectangle-17-Copy-2" fill="#338B37" x="9.83333333" y="0" width="4.91666667" height="14.0692641"></rect>
                                <rect id="Rectangle-17-Copy" fill="#4CAF50" x="4.91666667" y="0" width="4.91666667" height="14.0692641"></rect>
                                <rect id="Rectangle-17-Copy-3" fill="#4CAF50" x="14.75" y="0" width="4.91666667" height="14.0692641"></rect>
                                <rect id="Rectangle-17-Copy-5" fill="#338B37" x="19.6666667" y="0" width="4.91666667" height="14.0692641"></rect>
                                <rect id="Rectangle-17-Copy-4" fill="#4CAF50" x="24.5833333" y="0" width="4.91666667" height="14.0692641"></rect>
                                <rect id="Rectangle-17-Copy-7" fill="#338B37" x="29.5" y="0" width="4.91666667" height="14.0692641"></rect>
                                <rect id="Rectangle-17-Copy-6" fill="#4CAF50" x="34.4166667" y="0" width="4.91666667" height="14.0692641"></rect>
                                <rect id="Rectangle-17-Copy-9" fill="#338B37" x="39.3333333" y="0" width="4.91666667" height="14.0692641"></rect>
                                <rect id="Rectangle-17-Copy-8" fill="#4CAF50" x="44.25" y="0" width="4.91666667" height="14.0692641"></rect>
                                <rect id="Rectangle-17-Copy-11" fill="#338B37" x="49.1666667" y="0" width="4.91666667" height="14.0692641"></rect>
                                <polygon id="Rectangle-17-Copy-10" fill="#4CAF50" points="54.0833333 0 59 13.5390046 59 14.0692641 54.0833333 14.0692641"></polygon>
                            </g>
                        </g>
                        <rect id="Rectangle-20" fill="#F7A404" x="23.8809524" y="22.5108225" width="11.9404762" height="16.1796537" rx="1"></rect>
                        <g id="ic_local_shipping_black_24px" transform="translate(14.047619, 16.179654)">
                            <g id="Group">
                                <polygon id="Shape" points="0 0 37.9285714 0 37.9285714 37.987013 0 37.987013"></polygon>
                                <path d="M32.7343885,13.4641846 C32.4027637,13.0213368 31.6793347,12.6623377 31.1284693,12.6623377 L28.3983165,12.6623377 C27.8430166,12.6623377 27.3928571,12.2070156 27.3928571,11.6591451 L27.3928571,7.33436135 C27.3928571,6.78031342 26.9509019,6.33116883 26.3846997,6.33116883 L5.26785714,6.33116883 C3.52946429,6.33116883 2.10714286,7.75568182 2.10714286,9.49675325 L2.10714286,25.908858 C2.10714286,26.4603748 2.54662664,26.9074675 3.10721261,26.9074675 L5.26785714,26.9074675 C5.26785714,29.5349026 7.38553571,31.6558442 10.0089286,31.6558442 C12.6323214,31.6558442 14.75,29.5349026 14.75,26.9074675 L24.2321429,26.9074675 C24.2321429,29.5349026 26.3498214,31.6558442 28.9732143,31.6558442 C31.5966071,31.6558442 33.7142857,29.5349026 33.7142857,26.9074675 L35.8749302,26.9074675 C36.4272535,26.9074675 36.875,26.4593036 36.875,25.9051589 L36.875,19.9958151 C36.875,19.4422554 36.6065153,18.6349753 36.27454,18.1916596 L32.7343885,13.4641846 Z M10.0089286,29.2816558 C8.69723214,29.2816558 7.63839286,28.2211851 7.63839286,26.9074675 C7.63839286,25.59375 8.69723214,24.5332792 10.0089286,24.5332792 C11.320625,24.5332792 12.3794643,25.59375 12.3794643,26.9074675 C12.3794643,28.2211851 11.320625,29.2816558 10.0089286,29.2816558 Z M31.34375,15.036526 L34.44125,18.9935065 L27.3928571,18.9935065 L27.3928571,15.036526 L31.34375,15.036526 Z M28.9732143,29.2816558 C27.6615179,29.2816558 26.6026786,28.2211851 26.6026786,26.9074675 C26.6026786,25.59375 27.6615179,24.5332792 28.9732143,24.5332792 C30.2849107,24.5332792 31.34375,25.59375 31.34375,26.9074675 C31.34375,28.2211851 30.2849107,29.2816558 28.9732143,29.2816558 Z" id="Shape" fill="#FFC107"></path>
                            </g>
                        </g>
                    </g>
                </g>
            </g>
        </g>
    </g>
</svg>