<?xml version="1.0" encoding="UTF-8"?>
<svg width="120px" height="120px" viewBox="0 0 120 120" version="1.1" xmlns="http://www.w3.org/2000/svg" xmlns:xlink="http://www.w3.org/1999/xlink">
    <!-- Generator: sketchtool 41.2 (35397) - http://www.bohemiancoding.com/sketch -->
    <title>F115B602-E5E6-45EC-9E6E-E4EB172E2C5B</title>
    <desc>Created with sketchtool.</desc>
    <defs>
        <filter x="-50%" y="-50%" width="200%" height="200%" filterUnits="objectBoundingBox" id="filter-1">
            <feOffset dx="0" dy="2" in="SourceAlpha" result="shadowOffsetOuter1"></feOffset>
            <feGaussianBlur stdDeviation="0.25" in="shadowOffsetOuter1" result="shadowBlurOuter1"></feGaussianBlur>
            <feColorMatrix values="0 0 0 0 0   0 0 0 0 0   0 0 0 0 0  0 0 0 0.24 0" type="matrix" in="shadowBlurOuter1" result="shadowMatrixOuter1"></feColorMatrix>
            <feMerge>
                <feMergeNode in="shadowMatrixOuter1"></feMergeNode>
                <feMergeNode in="SourceGraphic"></feMergeNode>
            </feMerge>
        </filter>
    </defs>
    <g id="Page-1" stroke="none" stroke-width="1" fill="none" fill-rule="evenodd">
        <g id="home_updated" transform="translate(-140.000000, -893.000000)">
            <g id="ic_on_demand" transform="translate(140.000000, 893.000000)">
                <g id="Artboard-2">
                    <circle id="Oval-16" fill="#FFC107" cx="48" cy="48" r="48"></circle>
                    <g id="Group-3" filter="url(#filter-1)" stroke-width="1" transform="translate(23.000000, 27.000000)">
                        <g id="Group-4">
                            <g id="Group-2" fill="#338B37">
                                <g id="Group">
                                    <path d="M1.77635684e-15,0 C1.77635684e-15,0 7.65810543,0.428292743 10.3209643,3.08827941 C12.9838232,5.74826608 10.7704917,8.50608132 7.07948241,7.51557518 C3.38847308,6.52506904 1.77635684e-15,0 1.77635684e-15,0 Z" id="Path-11"></path>
                                    <path d="M1.77635684e-15,9.54545455 C1.77635684e-15,9.54545455 7.65810543,9.97374729 10.3209643,12.633734 C12.9838232,15.2937206 10.7704917,18.0515359 7.07948241,17.0610297 C3.38847308,16.0705236 1.77635684e-15,9.54545455 1.77635684e-15,9.54545455 Z" id="Path-11-Copy"></path>
                                    <path d="M1.77635684e-15,19.0909091 C1.77635684e-15,19.0909091 7.65810543,19.5192018 10.3209643,22.1791885 C12.9838232,24.8391752 10.7704917,27.5969904 7.07948241,26.6064843 C3.38847308,25.6159781 1.77635684e-15,19.0909091 1.77635684e-15,19.0909091 Z" id="Path-11-Copy-2"></path>
                                    <path d="M1.77635684e-15,28.6363636 C1.77635684e-15,28.6363636 2.97841582,28.8029367 5.86621437,29.5734924 C7.60899057,30.03852 9.31876323,30.7235229 10.3209643,31.724643 C12.9838232,34.3846297 10.7704917,37.142445 7.07948241,36.1519388 C3.38847308,35.1614327 1.77635684e-15,28.6363636 1.77635684e-15,28.6363636 Z" id="Path-11-Copy-3"></path>
                                </g>
                                <g id="Group" transform="translate(20.504395, 18.500000) scale(-1, 1) translate(-20.504395, -18.500000) translate(14.504395, 0.000000)">
                                    <path d="M6.1817218e-13,0 C6.1817218e-13,0 7.65810543,0.428292743 10.3209643,3.08827941 C12.9838232,5.74826608 10.7704917,8.50608132 7.07948241,7.51557518 C3.38847308,6.52506904 6.1817218e-13,0 6.1817218e-13,0 Z" id="Path-11"></path>
                                    <path d="M1.77635684e-15,9.54545455 C1.77635684e-15,9.54545455 7.65810543,9.97374729 10.3209643,12.633734 C12.9838232,15.2937206 10.7704917,18.0515359 7.07948241,17.0610297 C3.38847308,16.0705236 1.77635684e-15,9.54545455 1.77635684e-15,9.54545455 Z" id="Path-11-Copy"></path>
                                    <path d="M1.77635684e-15,19.0909091 C1.77635684e-15,19.0909091 7.65810543,19.5192018 10.3209643,22.1791885 C12.9838232,24.8391752 10.7704917,27.5969904 7.07948241,26.6064843 C3.38847308,25.6159781 1.77635684e-15,19.0909091 1.77635684e-15,19.0909091 Z" id="Path-11-Copy-2"></path>
                                    <path d="M1.77635684e-15,28.6363636 C1.77635684e-15,28.6363636 7.65810543,29.0646564 10.3209643,31.724643 C12.9838232,34.3846297 10.7704917,37.142445 7.07948241,36.1519388 C3.38847308,35.1614327 1.77635684e-15,28.6363636 1.77635684e-15,28.6363636 Z" id="Path-11-Copy-3"></path>
                                </g>
                            </g>
                            <rect id="Rectangle-15" fill="#1B5E20" x="12.9366689" y="5.09090909" width="0.631057021" height="43.2727273" rx="0.31552851"></rect>
                        </g>
                        <ellipse id="Oval-11" fill="#FFFFFF" cx="32.183908" cy="26.7272727" rx="13.2521974" ry="13.3636364"></ellipse>
                        <path d="M42.1452182,26.7272727 C42.1452182,21.181062 37.6853877,16.6849698 32.183908,16.6849698 C26.6824283,16.6849698 22.2225979,21.181062 22.2225979,26.7272727 C22.2225979,32.2734835 26.6824283,36.7695756 32.183908,36.7695756" id="Oval-11" stroke="#F7A404" fill="#FFFFFF"></path>
                        <path d="M39.2154211,27.0226346 C39.2154211,23.2707861 36.198477,20.229312 32.4768878,20.229312 C28.7552985,20.229312 25.7383544,23.2707861 25.7383544,27.0226346 C25.7383544,30.774483 28.7552985,33.8159571 32.4768878,33.8159571" id="Oval-11" stroke="#F7A404" fill="#FFFFFF"></path>
                        <path d="M42.5833441,31.6088639 C42.3687847,31.519773 42.1416042,31.4688639 41.9018025,31.4688639 L41.9018025,31.4688639 C41.3720473,31.4688639 40.9425959,31.0140434 40.9425959,30.4705427 L40.9425959,23.8325002 C40.9425959,22.7761366 40.0969795,21.9234093 39.0494248,21.9234093 C38.0018702,21.9234093 37.1562537,22.7761366 37.1562537,23.8325002 L37.1562537,36.4964703 C37.1562537,37.0515832 36.725341,37.4103765 36.173925,37.293654 L32.8272026,36.5852275 C32.7262335,36.5725002 32.6378855,36.5470457 32.5242952,36.5470457 C32.1330399,36.5470457 31.7796479,36.7125002 31.5272251,36.9670457 L31.5272251,36.9670457 C30.9765585,37.529372 31.1622964,38.6226847 31.9449375,39.411907 L36.7649984,44.2725002 C37.1057692,44.6161366 37.5853725,44.8325002 38.1028393,44.8325002 L46.6725936,44.8325002 C47.6191791,44.8325002 48.3512053,44.1325002 48.4900378,43.2034093 L49.4366234,36.4961366 C49.4492445,36.4070457 49.4618656,36.3179548 49.4618656,36.2415911 C49.4618656,35.4525002 48.9822623,34.7652275 48.3133419,34.4852275 L42.5833441,31.6088639 Z" id="Shape" fill="#32742C" transform="translate(40.336275, 33.377955) rotate(-45.000000) translate(-40.336275, -33.377955) "></path>
                    </g>
                </g>
            </g>
        </g>
    </g>
</svg>