<?xml version="1.0" encoding="UTF-8"?>
<svg width="120px" height="120px" viewBox="0 0 120 120" version="1.1" xmlns="http://www.w3.org/2000/svg" xmlns:xlink="http://www.w3.org/1999/xlink">
    <!-- Generator: sketchtool 41.2 (35397) - http://www.bohemiancoding.com/sketch -->
    <title>FA5FD752-D606-48B3-83D4-BE6783EF5EB2</title>
    <desc>Created with sketchtool.</desc>
    <defs>
        <filter x="-50%" y="-50%" width="200%" height="200%" filterUnits="objectBoundingBox" id="filter-1">
            <feOffset dx="0" dy="2" in="SourceAlpha" result="shadowOffsetOuter1"></feOffset>
            <feGaussianBlur stdDeviation="0.25" in="shadowOffsetOuter1" result="shadowBlurOuter1"></feGaussianBlur>
            <feColorMatrix values="0 0 0 0 0   0 0 0 0 0   0 0 0 0 0  0 0 0 0.24 0" type="matrix" in="shadowBlurOuter1" result="shadowMatrixOuter1"></feColorMatrix>
            <feMerge>
                <feMergeNode in="shadowMatrixOuter1"></feMergeNode>
                <feMergeNode in="SourceGraphic"></feMergeNode>
            </feMerge>
        </filter>
        <polygon id="path-2" points="0 0.189729788 0 14.255675 25.1232912 14.255675 25.1232912 0.189729788"></polygon>
        <path d="M43.449948,32.0397843 L34.2463058,22.8361421 C33.8638713,22.4537075 33.229781,22.4511574 32.8402588,22.8406795 L31.766414,23.9145243 C31.3757765,24.3051618 31.3748604,24.9335551 31.7618766,25.3205713 L42.7347357,36.2934304 C42.9396258,36.4983205 43.2167486,36.5941723 43.4897965,36.5791115 C43.7384258,36.5721144 43.9856575,36.4729332 44.1763791,36.2822116 L63.7888587,16.669732 C64.1871335,16.2714573 64.1850622,15.6419884 63.7955401,15.2524663 L62.7216953,14.1786214 C62.3310577,13.7879839 61.6976416,13.7920907 61.3044295,14.1853028 L43.449948,32.0397843 Z" id="path-4"></path>
        <mask id="mask-5" maskContentUnits="userSpaceOnUse" maskUnits="objectBoundingBox" x="-1" y="-1" width="34.6151042" height="24.6926414">
            <rect x="30.4725216" y="12.8880046" width="34.6151042" height="24.6926414" fill="white"></rect>
            <use xlink:href="#path-4" fill="black"></use>
        </mask>
    </defs>
    <g id="Page-1" stroke="none" stroke-width="1" fill="none" fill-rule="evenodd">
        <g id="home_updated" transform="translate(-471.000000, -893.000000)">
            <g id="ic_quality" transform="translate(471.000000, 893.000000)">
                <g id="quality">
                    <circle id="Oval-16" fill="#25BFCF" cx="48" cy="48" r="48"></circle>
                    <g id="Group-7" filter="url(#filter-1)" stroke-width="1" transform="translate(16.000000, 30.000000)">
                        <g id="Group-6-Copy-2" transform="translate(30.000000, 12.000000)"></g>
                        <g id="Group-8" transform="translate(0.000000, 1.000000)">
                            <g id="Page-1">
                                <g id="Group-4">
                                    <path d="M24.3627905,8.1027625 C23.7145473,7.9408875 17.2856959,5.8610125 12.5371824,7.2120125 C9.13258784,8.1815125 3.78326351,13.3483875 5.39596622,23.7941375 C7.18522297,35.3826375 15.779277,40.8846375 25.821777,40.8846375 C38.1506959,40.8846375 48.2011014,29.6592625 44.7886014,17.1458875 C40.4854257,1.3687625 25.821777,7.9408875 25.821777,7.9408875 L24.3627905,8.1027625 Z" id="Fill-1" fill="#D21A21"></path>
                                    <g id="Group-5" transform="translate(4.391892, 5.494037)">
                                        <path d="M11.7997838,1.7500875 C10.2766757,1.7500875 9.12424324,1.9434625 8.27836486,2.1840875 C4.84566216,3.1614625 -0.0354864865,8.3808375 1.48498649,18.2263375 C3.09768919,28.6703375 10.5533649,34.9064625 21.4303243,34.9064625 C27.4762027,34.9064625 33.2541757,32.0810875 36.8862703,27.3482125 C40.3541081,22.8305875 41.4336351,17.3014625 39.9272162,11.7793375 C38.6825541,7.2135875 36.4339054,4.1370875 33.2436351,2.6364625 C27.9145135,0.1278375 21.6920811,2.8613375 21.6297162,2.8893375 L21.4839054,2.9287125 L19.9379595,3.1002125 L19.8527568,3.0792125 C19.7956622,3.0643375 19.6937703,3.0354625 19.5532297,2.9960875 C16.283027,2.0642125 13.741,1.7500875 11.7997838,1.7500875 M21.4303243,35.8750875 C10.0307297,35.8750875 2.2157973,29.3327125 0.523162162,18.3733375 C-0.393864865,12.4355875 0.967621622,8.4840875 2.27113514,6.2152125 C3.70201351,3.7232125 5.84789189,1.8682125 8.01133784,1.2522125 C10.0562027,0.6703375 13.7638378,0.3387125 19.8211351,2.0642125 C19.8957973,2.0852125 19.9590405,2.1035875 20.0082297,2.1175875 L21.3029595,1.9740875 C22.0724189,1.6433375 28.1841757,-0.8171625 33.6591081,1.7605875 C37.1181622,3.3880875 39.5433649,6.6737125 40.8662027,11.5247125 C42.4534324,17.3452125 41.3141757,23.1735875 37.6592432,27.9362125 C33.8435676,32.9070875 27.7766081,35.8750875 21.4303243,35.8750875" id="Fill-3"></path>
                                    </g>
                                    <path d="M25.3053784,8.1984 C25.2869324,8.1984 25.2684865,8.197525 25.2491622,8.1949 C24.9830135,8.16515 24.791527,7.9254 24.8222703,7.6594 C24.8415946,7.4844 25.3431486,3.355275 28.1697703,1.2229 C29.5760541,0.163275 31.2985541,-0.211225 33.2959865,0.1134 C33.5612568,0.156275 33.7413243,0.404775 33.6982838,0.669025 C33.6543649,0.933275 33.4110541,1.11615 33.1396351,1.069775 C31.4197703,0.79065 29.944973,1.101275 28.7609189,1.9929 C26.2663243,3.87065 25.7928784,7.730275 25.7876081,7.76965 C25.7595,8.0164 25.5486892,8.1984 25.3053784,8.1984" id="Fill-6" fill="#1B5E20"></path>
                                    <path d="M1.64933108,8.446725 C1.64933108,8.446725 12.3488581,-0.37765 20.3403446,2.3051 C27.1750068,4.59935 27.3050068,12.9346 20.3403446,14.57785 C11.8622365,16.5781 1.64933108,8.446725 1.64933108,8.446725" id="Fill-12" fill="#009245"></path>
                                    <g id="Group-3" transform="translate(0.000000, 0.875000)">
                                        <g id="Group-16" transform="translate(0.000000, 0.244037)">
                                            <mask id="mask-3" fill="white">
                                                <use xlink:href="#path-2"></use>
                                            </mask>
                                            <g id="Clip-15"></g>
                                            <path d="M1.56772973,7.320425 C3.68813514,8.870925 12.2373919,14.665175 19.3505,12.9878 C22.1911757,12.31755 24.0278649,10.347925 24.1446892,7.847175 C24.2720541,5.1093 22.373,2.674175 19.3065811,1.645175 C12.6036757,-0.607075 3.72502703,5.678925 1.56772973,7.320425 M16.6573919,14.255675 C13.0191486,14.255675 9.37475676,12.887175 6.72117568,11.5773 C3.10313514,9.7923 0.573405405,7.7903 0.467121622,7.7063 L-0.000175675676,7.334425 L0.460972973,6.954675 C0.905432432,6.587175 11.4626622,-2.01145 19.617527,0.7273 C23.1055676,1.89805 25.2637432,4.7103 25.1161757,7.8918 C24.9791486,10.8423 22.8552297,13.156675 19.5744865,13.93105 C18.6161757,14.1568 17.6367838,14.255675 16.6573919,14.255675" id="Fill-14" mask="url(#mask-3)"></path>
                                        </g>
                                    </g>
                                </g>
                            </g>
                            <g id="Combined-Shape">
                                <use fill="#FFFFFF" fill-rule="evenodd" xlink:href="#path-4"></use>
                                <use stroke="#FFFFFF" mask="url(#mask-5)" stroke-width="2" xlink:href="#path-4"></use>
                            </g>
                        </g>
                    </g>
                </g>
            </g>
        </g>
    </g>
</svg>