<?xml version="1.0" encoding="UTF-8"?>
<svg width="120px" height="120px" viewBox="0 0 120 120" version="1.1" xmlns="http://www.w3.org/2000/svg" xmlns:xlink="http://www.w3.org/1999/xlink">
    <!-- Generator: sketchtool 41.2 (35397) - http://www.bohemiancoding.com/sketch -->
    <title>CEB47538-F8C4-4F85-9FAC-B3B25028C557</title>
    <desc>Created with sketchtool.</desc>
    <defs>
        <filter x="-50%" y="-50%" width="200%" height="200%" filterUnits="objectBoundingBox" id="filter-1">
            <feOffset dx="0" dy="2" in="SourceAlpha" result="shadowOffsetOuter1"></feOffset>
            <feGaussianBlur stdDeviation="0.25" in="shadowOffsetOuter1" result="shadowBlurOuter1"></feGaussianBlur>
            <feColorMatrix values="0 0 0 0 0   0 0 0 0 0   0 0 0 0 0  0 0 0 0.24 0" type="matrix" in="shadowBlurOuter1" result="shadowMatrixOuter1"></feColorMatrix>
            <feMerge>
                <feMergeNode in="shadowMatrixOuter1"></feMergeNode>
                <feMergeNode in="SourceGraphic"></feMergeNode>
            </feMerge>
        </filter>
        <polygon id="path-2" points="0 0.0474988791 0 3.56891023 6.32456183 3.56891023 6.32456183 0.0474988791"></polygon>
        <polygon id="path-4" points="-1.5720758e-13 0.0474988791 -1.5720758e-13 3.56891023 6.32456183 3.56891023 6.32456183 0.0474988791"></polygon>
    </defs>
    <g id="Page-1" stroke="none" stroke-width="1" fill="none" fill-rule="evenodd">
        <g id="home_updated" transform="translate(-1130.000000, -893.000000)">
            <g id="ic_wastage" transform="translate(1130.000000, 893.000000)">
                <g id="wastage">
                    <circle id="Oval-16-Copy-2" fill="#2C5D74" cx="48" cy="48" r="48"></circle>
                    <g id="Group-8" filter="url(#filter-1)" stroke-width="1" transform="translate(23.000000, 14.000000)">
                        <g id="Group-4" transform="translate(0.000000, 20.411765)">
                            <g id="Group-2">
                                <g id="Group-7">
                                    <rect id="Rectangle-21" fill="#FFC107" x="10.1766513" y="4.47376846" width="32.5652842" height="30.4277299" rx="1"></rect>
                                    <rect id="Rectangle-21-Copy" fill="#FFC107" transform="translate(5.778072, 17.549064) scale(1, -1) rotate(-283.000000) translate(-5.778072, -17.549064) " x="-11.8614567" y="16.1755898" width="35.2790579" height="2.74694784" rx="1"></rect>
                                    <g id="Group-3" transform="translate(11.417657, 6.470588)" stroke="#2C7074" stroke-linecap="round">
                                        <path d="M0.700339559,0 L0.700339559,26.542246" id="Path-2"></path>
                                        <path d="M3.57173175,0 L3.57173175,26.542246" id="Path-2-Copy"></path>
                                        <path d="M6.44312394,0 L6.44312394,26.542246" id="Path-2-Copy-2"></path>
                                        <path d="M9.31451613,0 L9.31451613,26.542246" id="Path-2-Copy-3"></path>
                                        <path d="M12.1859083,0 L12.1859083,26.542246" id="Path-2-Copy-4"></path>
                                        <path d="M15.0573005,0 L15.0573005,26.542246" id="Path-2-Copy-5"></path>
                                        <path d="M17.9286927,0 L17.9286927,26.542246" id="Path-2-Copy-6"></path>
                                        <path d="M20.8000849,0 L20.8000849,26.542246" id="Path-2-Copy-7"></path>
                                        <path d="M23.6714771,0 L23.6714771,26.542246" id="Path-2-Copy-8"></path>
                                        <path d="M26.5428693,0 L26.5428693,26.542246" id="Path-2-Copy-9"></path>
                                        <path d="M29.4142615,0 L29.4142615,26.542246" id="Path-2-Copy-10"></path>
                                    </g>
                                </g>
                            </g>
                        </g>
                        <g id="Group-7-Copy" transform="translate(14.516129, 0.000000)">
                            <g id="Page-1" transform="translate(20.967742, 4.235294)">
                                <g id="Group-4">
                                    <path d="M6.13311264,2.02852773 C5.96992326,1.9880023 4.35151795,1.4673053 3.15612253,1.80552834 C2.29904657,2.0482428 0.952402445,3.34177068 1.3583858,5.95686566 C1.80881504,8.85804825 3.97229058,10.2354747 6.50039932,10.2354747 C9.60409339,10.2354747 12.1341922,7.42520052 11.2751262,4.29247534 C10.1918405,0.342669884 6.50039932,1.9880023 6.50039932,1.9880023 L6.13311264,2.02852773 Z" id="Fill-1" fill="#FF5507"></path>
                                    <g id="Group-5" transform="translate(1.105619, 1.375433)">
                                        <path d="M2.97048907,0.438134651 C2.58706035,0.438134651 2.29694589,0.486546109 2.08400364,0.546786612 C1.21985172,0.79147258 -0.00893340271,2.09814384 0.373831946,4.56296615 C0.779815297,7.17762301 2.65671436,8.73883778 5.39489074,8.73883778 C6.91688606,8.73883778 8.37143861,8.03150475 9.28578564,6.84662883 C10.1587825,5.71564078 10.4305437,4.33142356 10.0513163,2.94895879 C9.73798387,1.80592264 9.17190687,1.03572044 8.36878512,0.660038756 C7.02722685,0.032004136 5.46078564,0.716336244 5.44508585,0.723346048 L5.40837929,0.733203585 L5.01920135,0.776138634 L4.99775234,0.770881281 C4.98337929,0.767157322 4.95772893,0.759928462 4.92234912,0.750070925 C4.0991051,0.516775888 3.45917274,0.438134651 2.97048907,0.438134651 M5.39489074,8.98133318 C2.52514568,8.98133318 0.557806972,7.34344868 0.131701353,4.59976762 C-0.0991519251,3.11325107 0.24359001,2.12399249 0.571737773,1.55597932 C0.931948491,0.932106771 1.47215401,0.467707261 2.016782,0.313491575 C2.53155827,0.167819087 3.46492196,0.0847967218 4.98979188,0.516775888 C5.00858741,0.522033241 5.02450832,0.526633425 5.03689126,0.530138327 L5.36282778,0.494213082 C5.55653226,0.411409773 7.09511186,-0.204576746 8.47337669,0.440763327 C9.34416233,0.84820818 9.95468522,1.67076486 10.2876977,2.88521339 C10.6872685,4.34237638 10.4004709,5.80151088 9.48037461,6.99383471 C8.5198127,8.23829396 6.99251041,8.98133318 5.39489074,8.98133318" id="Fill-3"></path>
                                    </g>
                                    <path d="M6.37040062,2.05247059 C6.36575702,2.05247059 6.36111342,2.05225153 6.3562487,2.05159436 C6.28924818,2.04414645 6.24104318,1.984125 6.24878252,1.91753186 C6.25364724,1.87372059 6.37990895,0.839993566 7.09148543,0.306153186 C7.44550468,0.0408759191 7.87912851,-0.0528802083 8.3819641,0.0283897059 C8.4487435,0.0391234681 8.49407388,0.101335478 8.48323881,0.167490502 C8.47218262,0.233645527 8.41093132,0.279428309 8.34260406,0.267818321 C7.9096436,0.197939338 7.53837669,0.27570435 7.24030177,0.498922794 C6.61231009,0.96901777 6.49312435,1.93527543 6.49179761,1.94513297 C6.48472164,2.00690686 6.43165193,2.05247059 6.37040062,2.05247059" id="Fill-6" fill="#1B5E20"></path>
                                    <path d="M0.415204214,2.11463879 C0.415204214,2.11463879 3.10871358,-0.0945447304 5.12049818,0.577082108 C6.8410627,1.15144792 6.87378902,3.23817892 5.12049818,3.64956679 C2.98621098,4.15032966 0.415204214,2.11463879 0.415204214,2.11463879" id="Fill-12" fill="#009245"></path>
                                    <g id="Group-3" transform="translate(0.000000, 0.219056)">
                                        <g id="Group-16" transform="translate(0.000000, 0.061095)">
                                            <mask id="mask-3" fill="white">
                                                <use xlink:href="#path-2"></use>
                                            </mask>
                                            <g id="Clip-15"></g>
                                            <path d="M0.394661811,1.83266942 C0.928454735,2.22083732 3.08065297,3.67142862 4.87131374,3.25149755 C5.5864282,3.08370037 6.04879813,2.59060447 6.0782076,1.96454136 C6.11027055,1.27911397 5.63220083,0.669480086 4.86025754,0.411869792 C3.1728616,-0.151981311 0.937741935,1.42171967 0.394661811,1.83266942 M4.19334807,3.56891023 C3.27745317,3.56891023 2.36001041,3.22630607 1.69199532,2.89837868 C0.781186264,2.45150368 0.144349636,1.9503027 0.117593652,1.92927328 L-4.4224766e-05,1.83617433 L0.116045786,1.74110386 C0.227934443,1.64910018 2.88562175,-0.503566789 4.93853538,0.182079657 C5.81661811,0.475177083 6.35991935,1.17922426 6.32277055,1.97571324 C6.28827523,2.71437132 5.75359781,3.29377543 4.92770031,3.48764032 C4.68645421,3.54415686 4.43990114,3.56891023 4.19334807,3.56891023" id="Fill-14" mask="url(#mask-3)"></path>
                                        </g>
                                    </g>
                                </g>
                            </g>
                            <g id="Page-1-Copy" transform="translate(11.656244, 9.281878) rotate(-30.000000) translate(-11.656244, -9.281878) translate(4.156244, 3.781878)">
                                <g id="Group-4" transform="translate(-0.000000, -0.000000)">
                                    <path d="M6.13311264,2.02852773 C5.96992326,1.9880023 4.35151795,1.4673053 3.15612253,1.80552834 C2.29904657,2.0482428 0.952402445,3.34177068 1.3583858,5.95686566 C1.80881504,8.85804825 3.97229058,10.2354747 6.50039932,10.2354747 C9.60409339,10.2354747 12.1341922,7.42520052 11.2751262,4.29247534 C10.1918405,0.342669884 6.50039932,1.9880023 6.50039932,1.9880023 L6.13311264,2.02852773 Z" id="Fill-1" fill="#FF5507"></path>
                                    <g id="Group-5" transform="translate(1.105619, 1.375433)">
                                        <path d="M2.97048907,0.438134651 C2.58706035,0.438134651 2.29694589,0.486546109 2.08400364,0.546786612 C1.21985172,0.79147258 -0.00893340271,2.09814384 0.373831946,4.56296615 C0.779815297,7.17762301 2.65671436,8.73883778 5.39489074,8.73883778 C6.91688606,8.73883778 8.37143861,8.03150475 9.28578564,6.84662883 C10.1587825,5.71564078 10.4305437,4.33142356 10.0513163,2.94895879 C9.73798387,1.80592264 9.17190687,1.03572044 8.36878512,0.660038756 C7.02722685,0.032004136 5.46078564,0.716336244 5.44508585,0.723346048 L5.40837929,0.733203585 L5.01920135,0.776138634 L4.99775234,0.770881281 C4.98337929,0.767157322 4.95772893,0.759928462 4.92234912,0.750070925 C4.0991051,0.516775888 3.45917274,0.438134651 2.97048907,0.438134651 M5.39489074,8.98133318 C2.52514568,8.98133318 0.557806972,7.34344868 0.131701353,4.59976762 C-0.0991519251,3.11325107 0.24359001,2.12399249 0.571737773,1.55597932 C0.931948491,0.932106771 1.47215401,0.467707261 2.016782,0.313491575 C2.53155827,0.167819087 3.46492196,0.0847967218 4.98979188,0.516775888 C5.00858741,0.522033241 5.02450832,0.526633425 5.03689126,0.530138327 L5.36282778,0.494213082 C5.55653226,0.411409773 7.09511186,-0.204576746 8.47337669,0.440763327 C9.34416233,0.84820818 9.95468522,1.67076486 10.2876977,2.88521339 C10.6872685,4.34237638 10.4004709,5.80151088 9.48037461,6.99383471 C8.5198127,8.23829396 6.99251041,8.98133318 5.39489074,8.98133318" id="Fill-3"></path>
                                    </g>
                                    <path d="M6.37040062,2.05247059 C6.36575702,2.05247059 6.36111342,2.05225153 6.3562487,2.05159436 C6.28924818,2.04414645 6.24104318,1.984125 6.24878252,1.91753186 C6.25364724,1.87372059 6.37990895,0.839993566 7.09148543,0.306153186 C7.44550468,0.0408759191 7.87912851,-0.0528802083 8.3819641,0.0283897059 C8.4487435,0.0391234681 8.49407388,0.101335478 8.48323881,0.167490502 C8.47218262,0.233645527 8.41093132,0.279428309 8.34260406,0.267818321 C7.9096436,0.197939338 7.53837669,0.27570435 7.24030177,0.498922794 C6.61231009,0.96901777 6.49312435,1.93527543 6.49179761,1.94513297 C6.48472164,2.00690686 6.43165193,2.05247059 6.37040062,2.05247059" id="Fill-6" fill="#1B5E20"></path>
                                    <path d="M0.415204214,2.11463879 C0.415204214,2.11463879 3.10871358,-0.0945447304 5.12049818,0.577082108 C6.8410627,1.15144792 6.87378902,3.23817892 5.12049818,3.64956679 C2.98621098,4.15032966 0.415204214,2.11463879 0.415204214,2.11463879" id="Fill-12" fill="#009245"></path>
                                    <g id="Group-3" transform="translate(-0.000000, 0.219056)">
                                        <g id="Group-16" transform="translate(-0.000000, 0.061095)">
                                            <mask id="mask-5" fill="white">
                                                <use xlink:href="#path-4"></use>
                                            </mask>
                                            <g id="Clip-15"></g>
                                            <path d="M0.394661811,1.83266942 C0.928454735,2.22083732 3.08065297,3.67142862 4.87131374,3.25149755 C5.5864282,3.08370037 6.04879813,2.59060447 6.0782076,1.96454136 C6.11027055,1.27911397 5.63220083,0.669480086 4.86025754,0.411869792 C3.1728616,-0.151981311 0.937741935,1.42171967 0.394661811,1.83266942 M4.19334807,3.56891023 C3.27745317,3.56891023 2.36001041,3.22630607 1.69199532,2.89837868 C0.781186264,2.45150368 0.144349636,1.9503027 0.117593652,1.92927328 L-4.42247658e-05,1.83617433 L0.116045786,1.74110386 C0.227934443,1.64910018 2.88562175,-0.503566789 4.93853538,0.182079657 C5.81661811,0.475177083 6.35991935,1.17922426 6.32277055,1.97571324 C6.28827523,2.71437132 5.75359781,3.29377543 4.92770031,3.48764032 C4.68645421,3.54415686 4.43990114,3.56891023 4.19334807,3.56891023" id="Fill-14" mask="url(#mask-5)"></path>
                                        </g>
                                    </g>
                                </g>
                            </g>
                            <g id="Group-6-Copy-2" transform="translate(0.000000, 13.132353)" fill="#FFFFFF">
                                <path d="M11.7191755,7.92886782 L4.49948425,0.709176538 C4.11721585,0.326908133 3.48187668,0.319679398 3.09446994,0.707086141 L0.67294995,3.12860613 C0.284458288,3.51709779 0.286479111,4.14505921 0.675040348,4.53362044 L7.89473163,11.7533117 L0.407248944,19.2407944 C0.010683675,19.6373597 0.011450189,20.2647036 0.398856931,20.6521103 L2.82037692,23.0736303 C3.20886858,23.462122 3.83965133,23.4572798 4.23169285,23.0652383 L11.7191755,15.5777556 L18.713125,22.5717051 C19.0953934,22.9539735 19.7307326,22.9612022 20.1181393,22.5737955 L22.5396593,20.1522755 C22.928151,19.7637838 22.9261301,19.1358224 22.5375689,18.7472612 L15.5436194,11.7533117 L22.7570091,4.53992206 C23.1535744,4.14335679 23.1528079,3.51601287 22.7654011,3.12860613 L20.3438811,0.707086141 C19.9553895,0.318594478 19.3246067,0.32343663 18.9325652,0.715478153 L11.7191755,7.92886782 Z" id="Combined-Shape"></path>
                            </g>
                        </g>
                    </g>
                </g>
            </g>
        </g>
    </g>
</svg>