<?xml version="1.0" encoding="UTF-8"?>
<svg width="134px" height="134px" viewBox="0 0 134 134" version="1.1" xmlns="http://www.w3.org/2000/svg" xmlns:xlink="http://www.w3.org/1999/xlink">
    <!-- Generator: sketchtool 41.2 (35397) - http://www.bohemiancoding.com/sketch -->
    <title>81CA3D7B-D75A-4092-9C83-01281A3EFE4F</title>
    <desc>Created with sketchtool.</desc>
    <defs>
        <filter x="-50%" y="-50%" width="200%" height="200%" filterUnits="objectBoundingBox" id="filter-1">
            <feOffset dx="0" dy="0" in="SourceAlpha" result="shadowOffsetOuter1"></feOffset>
            <feGaussianBlur stdDeviation="3.5" in="shadowOffsetOuter1" result="shadowBlurOuter1"></feGaussianBlur>
            <feColorMatrix values="0 0 0 0 0   0 0 0 0 0   0 0 0 0 0  0 0 0 0.261973505 0" type="matrix" in="shadowBlurOuter1" result="shadowMatrixOuter1"></feColorMatrix>
            <feMerge>
                <feMergeNode in="shadowMatrixOuter1"></feMergeNode>
                <feMergeNode in="SourceGraphic"></feMergeNode>
            </feMerge>
        </filter>
        <circle id="path-2" cx="48" cy="48" r="48"></circle>
    </defs>
    <g id="Page-1" stroke="none" stroke-width="1" fill="none" fill-rule="evenodd">
        <g id="Retailers_desk" transform="translate(-464.000000, -806.000000)">
            <g id="ic_quality" filter="url(#filter-1)" transform="translate(471.000000, 813.000000)">
                <g id="quality-copy-2">
                    <circle id="Oval-16" fill="#FFFFFF" cx="48" cy="48" r="48"></circle>
                    <g id="Path-30" stroke-width="1">
                        <mask id="mask-3" fill="white">
                            <use xlink:href="#path-2"></use>
                        </mask>
                        <use id="Mask" fill="#FFFFFF" xlink:href="#path-2"></use>
                        <polygon fill="#D8D8D8" opacity="0.5" mask="url(#mask-3)" points="65.6967093 27 99.1168724 60.9147585 100.510462 99.3529884 48.3137719 99.3529884 17.9397426 68.5294445 53.1774317 32.1650391 60.9948097 58.6601562"></polygon>
                    </g>
                    <g id="ic_brightness_high_black_24px" stroke-width="1" transform="translate(27.000000, 20.000000)">
                        <g id="Group">
                            <polygon id="Shape" points="0 1 47 1 47 48 0 48"></polygon>
                            <polygon id="Shape" fill="#009688" points="39.1666667 16.0179167 39.1666667 6.83333333 29.9820833 6.83333333 23.5 0.35125 17.0179167 6.83333333 7.83333333 6.83333333 7.83333333 16.0179167 1.35125 22.5 7.83333333 28.9820833 7.83333333 38.1666667 17.0179167 38.1666667 23.5 44.64875 29.9820833 38.1666667 39.1666667 38.1666667 39.1666667 28.9820833 45.64875 22.5"></polygon>
                            <path d="M23.5,34.25 C17.0179167,34.25 11.75,28.9820833 11.75,22.5 C11.75,16.0179167 17.0179167,10.75 23.5,10.75 C29.9820833,10.75 35.25,16.0179167 35.25,22.5 C35.25,28.9820833 29.9820833,34.25 23.5,34.25 Z" id="Path" fill="#FFFFFF"></path>
                        </g>
                    </g>
                    <path d="M45.9418615,35 L56.2513056,35 L56.2513056,35.0214334 C55.6440241,35.9573612 55.3010939,36.4574679 55.2225045,36.5217683 L52.4683183,36.5217683 C52.8469761,36.9647265 53.1041738,37.5041272 53.2399191,38.1399866 L56.1762888,38.1399866 C56.2120113,38.1471311 56.2298722,38.1614199 56.2298722,38.1828533 C55.5725794,39.1687926 55.2367935,39.6617549 55.2225045,39.6617549 L53.3149358,39.6617549 C53.2720689,40.1690135 53.02916,40.779858 52.5862018,41.4943068 C52.0003538,42.2159 51.4395199,42.6838569 50.9036833,42.8981916 C49.9034551,43.3768722 48.9461081,43.616209 48.0316137,43.616209 L48.0316137,43.6376423 C48.0316137,43.7090872 48.2566617,44.005579 48.7067644,44.5271266 L53.7971863,50.667783 L53.7971863,50.9571333 C53.7971863,50.9857112 53.7793254,51 53.743603,51 L51.5038173,51 C47.4743263,46.3060716 45.459611,43.9484261 45.459611,43.9269926 L45.459611,42.5016745 L45.4810444,42.4480911 C45.8382687,42.4981025 46.256215,42.5231078 46.7348957,42.5231078 C48.9925537,42.5231078 50.3964245,41.7908088 50.94655,40.3261889 C51.0322839,40.1118543 51.0751502,39.8903785 51.0751502,39.6617549 L44.9452105,39.6617549 C44.9166325,39.6617549 44.9023438,39.6474661 44.9023438,39.6188881 C45.5810701,38.6329489 45.9275725,38.1399866 45.9418615,38.1399866 L50.8072332,38.1399866 L50.8072332,38.1185532 C50.5285982,37.5541387 49.9891975,37.1147593 49.1890149,36.8004019 C48.6174559,36.6146452 48.1030605,36.5217683 47.6458133,36.5217683 L44.9237771,36.5217683 L44.9237771,36.4681849 C45.58107,35.4893901 45.920428,35 45.9418615,35 Z" id="`" fill="#009688"></path>
                    <path d="M27.4168229,54.0898932 C29.6359201,53.5933345 36.9730075,52 39.7524414,52 C43.0449219,52 51.7211914,56.203125 52.6645508,56.203125 C53.6079102,56.203125 66.3916016,56.8764648 68.0141602,59.0932617 C69.6367188,61.3100586 69.4995117,61.2026367 68.7568359,62.6591797 C68.0141602,64.1157227 67.0693359,65.1225586 66.2260742,65.1225586 C65.3828125,65.1225586 57.3417969,64.5786133 56.5151367,64.5786133 C55.6884766,64.5786133 50.3129883,64.0932617 50.3129883,64.6079102 C50.3129883,65.1225586 53.2197266,65.9160156 54.5869141,66.6025391 C55.9541016,67.2890625 64.7451172,67.140625 66.7509766,66.6132812 C68.7568359,66.0859375 71.6069336,63.5566406 73.6928711,62.484375 C75.7788086,61.4121094 78.1728516,60.8754883 79.7568359,62.7270508 C81.3408203,64.5786133 78.980957,65.6260986 78.980957,65.6260986 C78.980957,65.6260986 80.020874,65.114624 80.020874,66.2861328 C80.020874,67.4576416 79.5083008,68.7709961 77.7670898,70.293457 C76.0258789,71.815918 70.0395508,75.4775391 70.0395508,75.4775391 C70.0395508,75.4775391 66.8935547,76.2758789 65.7070312,76.2758789 C64.5205078,76.2758789 62.8359375,76.8476562 62.8359375,76.8476562 L55.0014648,78.1298828 C55.0014648,78.1298828 50.1484375,78.7885742 48.0644531,77.5322266 C45.9804688,76.2758789 30.1738281,69.2163086 29.3876953,69.2163086 C28.6015625,69.2163086 26,69.1948242 26,69.1948242 L26.0100541,69 L17.9955775,69 C17.4457352,69 17,68.5510798 17,67.992516 L17,55.007484 C17,54.4510659 17.444837,54 17.9955775,54 L27.0044225,54 C27.1515208,54 27.291168,54.0321298 27.4168229,54.0898932 Z" id="Combined-Shape" fill="#4F3828"></path>
                </g>
            </g>
        </g>
    </g>
</svg>