<?xml version="1.0" encoding="UTF-8"?>
<svg width="134px" height="136px" viewBox="0 0 134 136" version="1.1" xmlns="http://www.w3.org/2000/svg" xmlns:xlink="http://www.w3.org/1999/xlink">
    <!-- Generator: sketchtool 41.2 (35397) - http://www.bohemiancoding.com/sketch -->
    <title>693225A5-26C5-4426-9131-C7FBD69494B1</title>
    <desc>Created with sketchtool.</desc>
    <defs>
        <filter x="-50%" y="-50%" width="200%" height="200%" filterUnits="objectBoundingBox" id="filter-1">
            <feOffset dx="0" dy="0" in="SourceAlpha" result="shadowOffsetOuter1"></feOffset>
            <feGaussianBlur stdDeviation="3.5" in="shadowOffsetOuter1" result="shadowBlurOuter1"></feGaussianBlur>
            <feColorMatrix values="0 0 0 0 0   0 0 0 0 0   0 0 0 0 0  0 0 0 0.261973505 0" type="matrix" in="shadowBlurOuter1" result="shadowMatrixOuter1"></feColorMatrix>
            <feMerge>
                <feMergeNode in="shadowMatrixOuter1"></feMergeNode>
                <feMergeNode in="SourceGraphic"></feMergeNode>
            </feMerge>
        </filter>
    </defs>
    <g id="Page-1" stroke="none" stroke-width="1" fill="none" fill-rule="evenodd">
        <g id="Retailers_desk" transform="translate(-791.000000, -806.000000)">
            <g id="ic_delivery" filter="url(#filter-1)" transform="translate(798.000000, 813.000000)">
                <g id="quality-copy-4">
                    <circle id="Oval-16-Copy" fill="#FFFFFF" cx="48" cy="48" r="48"></circle>
                    <path d="M95.5108812,43.1217508 L74.6884876,22.8370529 L31.6967093,23 C31.6967093,23 28.1689453,28.59375 26.9397426,34.4589844 C25.7105398,40.3242187 20.4365234,67.0820312 20.4365234,67.0820312 L53.0590996,97.7365665 C77.1907197,95.2088142 96,74.8009785 96,50 C96,47.6645394 95.8332063,45.3680356 95.5108812,43.1217508 Z" id="Combined-Shape" fill="#D8D8D8" opacity="0.5"></path>
                    <g id="Group-5" stroke-width="1" transform="translate(16.000000, 23.000000)">
                        <rect id="Rectangle-19" fill="#FFFFFF" x="4.64285714" y="14.8238882" width="55.7142857" height="28.8675718"></rect>
                        <g id="Group-4">
                            <g id="Group-3" transform="translate(0.000000, 14.823888)" fill="#338B37">
                                <path d="M5.41666086,0.169945433 C5.41360251,1.67545106 4.20221489,2.8949473 2.70833333,2.8949473 C1.21256214,2.8949473 0,1.67236399 0,0.164231044 C0,0.109090375 0.00162094697,0.0543314275 0.00481741769,3.29807015e-12 L0.00481741769,0.169945433 L5.41666128,0.169945433 Z" id="Combined-Shape"></path>
                                <path d="M10.8333275,0.169945433 C10.8302692,1.67545106 9.61888156,2.8949473 8.125,2.8949473 C6.6292288,2.8949473 5.41666667,1.67236399 5.41666667,0.164231044 C5.41666667,0.109090375 5.41828761,0.0543314275 5.42148408,3.29807015e-12 L5.42148408,0.169945433 L10.8333279,0.169945433 Z" id="Combined-Shape-Copy"></path>
                                <path d="M16.2499942,0.169945433 C16.2469358,1.67545106 15.0355482,2.8949473 13.5416667,2.8949473 C12.0458955,2.8949473 10.8333333,1.67236399 10.8333333,0.164231044 C10.8333333,0.109090375 10.8349543,0.0543314275 10.8381508,3.29807015e-12 L10.8381508,0.169945433 L16.2499946,0.169945433 Z" id="Combined-Shape-Copy-2"></path>
                                <path d="M21.6666609,0.169945433 C21.6636025,1.67545106 20.4522149,2.8949473 18.9583333,2.8949473 C17.4625621,2.8949473 16.25,1.67236399 16.25,0.164231044 C16.25,0.109090375 16.2516209,0.0543314275 16.2548174,3.29807015e-12 L16.2548174,0.169945433 L21.6666613,0.169945433 Z" id="Combined-Shape-Copy-3"></path>
                                <path d="M27.0833275,0.169945433 C27.0802692,1.67545106 25.8688816,2.8949473 24.375,2.8949473 C22.8792288,2.8949473 21.6666667,1.67236399 21.6666667,0.164231044 C21.6666667,0.109090375 21.6682876,0.0543314275 21.6714841,3.29807015e-12 L21.6714841,0.169945433 L27.0833279,0.169945433 Z" id="Combined-Shape-Copy-4"></path>
                                <path d="M32.4999942,0.169945433 C32.4969358,1.67545106 31.2855482,2.8949473 29.7916667,2.8949473 C28.2958955,2.8949473 27.0833333,1.67236399 27.0833333,0.164231044 C27.0833333,0.109090375 27.0849543,0.0543314275 27.0881508,3.29812566e-12 L27.0881508,0.169945433 L32.4999946,0.169945433 Z" id="Combined-Shape-Copy-5"></path>
                                <path d="M37.9166609,0.169945433 C37.9136025,1.67545106 36.7022149,2.8949473 35.2083333,2.8949473 C33.7125621,2.8949473 32.5,1.67236399 32.5,0.164231044 C32.5,0.109090375 32.5016209,0.0543314275 32.5048174,3.29807015e-12 L32.5048174,0.169945433 L37.9166613,0.169945433 Z" id="Combined-Shape-Copy-6"></path>
                                <path d="M43.3333275,0.169945433 C43.3302692,1.67545106 42.1188816,2.8949473 40.625,2.8949473 C39.1292288,2.8949473 37.9166667,1.67236399 37.9166667,0.164231044 C37.9166667,0.109090375 37.9182876,0.0543314275 37.9214841,3.29762606e-12 L37.9214841,0.169945433 L43.3333279,0.169945433 Z" id="Combined-Shape-Copy-7"></path>
                                <path d="M48.7499942,0.169945433 C48.7469358,1.67545106 47.5355482,2.8949473 46.0416667,2.8949473 C44.5458955,2.8949473 43.3333333,1.67236399 43.3333333,0.164231044 C43.3333333,0.109090375 43.3349543,0.0543314275 43.3381508,3.29812566e-12 L43.3381508,0.169945433 L48.7499946,0.169945433 Z" id="Combined-Shape-Copy-8"></path>
                                <path d="M54.1666609,0.169945433 C54.1636025,1.67545106 52.9522149,2.8949473 51.4583333,2.8949473 C49.9625621,2.8949473 48.75,1.67236399 48.75,0.164231044 C48.75,0.109090375 48.7516209,0.0543314275 48.7548174,3.29807015e-12 L48.7548174,0.169945433 L54.1666613,0.169945433 Z" id="Combined-Shape-Copy-9"></path>
                                <path d="M59.5833275,0.169945433 C59.5802692,1.67545106 58.3688816,2.8949473 56.875,2.8949473 C55.3792288,2.8949473 54.1666667,1.67236399 54.1666667,0.164231044 C54.1666667,0.109090375 54.1682876,0.0543314275 54.1714841,3.29812566e-12 L54.1714841,0.169945433 L59.5833279,0.169945433 Z" id="Combined-Shape-Copy-10"></path>
                                <path d="M64.9999942,0.169945433 C64.9969358,1.67545106 63.7855482,2.8949473 62.2916667,2.8949473 C60.7958955,2.8949473 59.5833333,1.67236399 59.5833333,0.164231044 C59.5833333,0.109090375 59.5849543,0.0543314275 59.5881508,3.29807015e-12 L59.5881508,0.169945433 L64.9999946,0.169945433 Z" id="Combined-Shape-Copy-11"></path>
                            </g>
                            <g id="Group-2">
                                <polygon id="Rectangle-17" fill="#338B37" points="5.41666667 0 5.41666667 15.6040929 0 15.6040929 0 14.8892228"></polygon>
                                <rect id="Rectangle-17-Copy-2" fill="#338B37" x="10.8333333" y="0" width="5.41666667" height="15.6040929"></rect>
                                <rect id="Rectangle-17-Copy" fill="#4CAF50" x="5.41666667" y="0" width="5.41666667" height="15.6040929"></rect>
                                <rect id="Rectangle-17-Copy-3" fill="#4CAF50" x="16.25" y="0" width="5.41666667" height="15.6040929"></rect>
                                <rect id="Rectangle-17-Copy-5" fill="#338B37" x="21.6666667" y="0" width="5.41666667" height="15.6040929"></rect>
                                <rect id="Rectangle-17-Copy-4" fill="#4CAF50" x="27.0833333" y="0" width="5.41666667" height="15.6040929"></rect>
                                <rect id="Rectangle-17-Copy-7" fill="#338B37" x="32.5" y="0" width="5.41666667" height="15.6040929"></rect>
                                <rect id="Rectangle-17-Copy-6" fill="#4CAF50" x="37.9166667" y="0" width="5.41666667" height="15.6040929"></rect>
                                <rect id="Rectangle-17-Copy-9" fill="#338B37" x="43.3333333" y="0" width="5.41666667" height="15.6040929"></rect>
                                <rect id="Rectangle-17-Copy-8" fill="#4CAF50" x="48.75" y="0" width="5.41666667" height="15.6040929"></rect>
                                <rect id="Rectangle-17-Copy-11" fill="#338B37" x="54.1666667" y="0" width="5.41666667" height="15.6040929"></rect>
                                <polygon id="Rectangle-17-Copy-10" fill="#4CAF50" points="59.5833333 0 65 15.015987 65 15.6040929 59.5833333 15.6040929"></polygon>
                            </g>
                        </g>
                        <rect id="Rectangle-20" fill="#F7A404" x="26.3095238" y="24.9665486" width="13.1547619" height="17.9447068" rx="1"></rect>
                        <g id="ic_local_shipping_black_24px" transform="translate(15.476190, 17.944707)">
                            <g id="Group">
                                <polygon id="Shape" points="0 0 41.7857143 0 41.7857143 42.1310508 0 42.1310508"></polygon>
                                <path d="M36.0009548,14.8491781 C35.6700429,14.4043158 34.9564574,14.0436836 34.3946975,14.0436836 L31.1856597,14.0436836 C30.6294602,14.0436836 30.1785714,13.6044359 30.1785714,13.0376249 L30.1785714,8.02790052 C30.1785714,7.47226963 29.7346901,7.02184179 29.1775997,7.02184179 L5.80357143,7.02184179 C3.88839286,7.02184179 2.32142857,8.6017562 2.32142857,10.5327627 L2.32142857,28.8452969 C2.32142857,29.3962179 2.77665794,29.8428276 3.32860856,29.8428276 L5.80357143,29.8428276 C5.80357143,32.756892 8.13660714,35.109209 11.0267857,35.109209 C13.9169643,35.109209 16.25,32.756892 16.25,29.8428276 L26.6964286,29.8428276 C26.6964286,32.756892 29.0294643,35.109209 31.9196429,35.109209 C34.8098214,35.109209 37.1428571,32.756892 37.1428571,29.8428276 L39.61782,29.8428276 C40.1740702,29.8428276 40.625,29.3954928 40.625,28.8359595 L40.625,22.0723936 C40.625,21.5163156 40.3587991,20.7076576 40.0258309,20.2600308 L36.0009548,14.8491781 Z M11.0267857,32.4760183 C9.58169643,32.4760183 8.41517857,31.2998598 8.41517857,29.8428276 C8.41517857,28.3857955 9.58169643,27.209637 11.0267857,27.209637 C12.471875,27.209637 13.6383929,28.3857955 13.6383929,29.8428276 C13.6383929,31.2998598 12.471875,32.4760183 11.0267857,32.4760183 Z M34.53125,16.6768743 L37.94375,21.0655254 L30.1785714,21.0655254 L30.1785714,16.6768743 L34.53125,16.6768743 Z M31.9196429,32.4760183 C30.4745536,32.4760183 29.3080357,31.2998598 29.3080357,29.8428276 C29.3080357,28.3857955 30.4745536,27.209637 31.9196429,27.209637 C33.3647321,27.209637 34.53125,28.3857955 34.53125,29.8428276 C34.53125,31.2998598 33.3647321,32.4760183 31.9196429,32.4760183 Z" id="Shape" fill="#FFC107"></path>
                            </g>
                        </g>
                    </g>
                </g>
            </g>
        </g>
    </g>
</svg>