<?xml version="1.0" encoding="UTF-8"?>
<svg width="134px" height="134px" viewBox="0 0 134 134" version="1.1" xmlns="http://www.w3.org/2000/svg" xmlns:xlink="http://www.w3.org/1999/xlink">
    <!-- Generator: Sketch 41.2 (35397) - http://www.bohemiancoding.com/sketch -->
    <title>ic_fresh_better</title>
    <desc>Created with Sketch.</desc>
    <defs>
        <filter x="-50%" y="-50%" width="200%" height="200%" filterUnits="objectBoundingBox" id="filter-1">
            <feOffset dx="0" dy="0" in="SourceAlpha" result="shadowOffsetOuter1"></feOffset>
            <feGaussianBlur stdDeviation="3.5" in="shadowOffsetOuter1" result="shadowBlurOuter1"></feGaussianBlur>
            <feColorMatrix values="0 0 0 0 0   0 0 0 0 0   0 0 0 0 0  0 0 0 0.261973505 0" type="matrix" in="shadowBlurOuter1" result="shadowMatrixOuter1"></feColorMatrix>
            <feMerge>
                <feMergeNode in="shadowMatrixOuter1"></feMergeNode>
                <feMergeNode in="SourceGraphic"></feMergeNode>
            </feMerge>
        </filter>
    </defs>
    <g id="Page-1" stroke="none" stroke-width="1" fill="none" fill-rule="evenodd">
        <g id="Retailers_desk" transform="translate(-119.000000, -806.000000)">
            <g id="ic_fresh_better" filter="url(#filter-1)" transform="translate(126.000000, 813.000000)">
                <g>
                    <circle id="Oval-16" fill="#FFFFFF" cx="48" cy="48" r="48"></circle>
                    <ellipse id="Oval-20" fill="#9A8C5F" cx="65.5" cy="77" rx="13.5" ry="3"></ellipse>
                    <ellipse id="Oval-20-Copy" fill="#9A8C5F" cx="30.5" cy="77" rx="13.5" ry="3"></ellipse>
                    <g id="Group-3" stroke-width="1" transform="translate(17.000000, 19.000000)">
                        <g id="Group-4">
                            <g id="Group-2">
                                <g id="Group-5">
                                    <g id="Group" fill="#338B37">
                                        <path d="M2.66453526e-15,0 C2.66453526e-15,0 9.0762731,0.515699425 12.232254,3.71854052 C15.388235,6.92138161 12.7650273,10.2420163 8.39049767,9.04936603 C4.0159681,7.85671578 2.66453526e-15,0 2.66453526e-15,0 Z" id="Path-11"></path>
                                        <path d="M2.66453526e-15,11.4935065 C2.66453526e-15,11.4935065 9.0762731,12.0092059 12.232254,15.212047 C15.388235,18.4148881 12.7650273,21.7355228 8.39049767,20.5428725 C4.0159681,19.3502223 2.66453526e-15,11.4935065 2.66453526e-15,11.4935065 Z" id="Path-11-Copy"></path>
                                        <path d="M2.66453526e-15,22.987013 C2.66453526e-15,22.987013 9.0762731,23.5027124 12.232254,26.7055535 C15.388235,29.9083946 12.7650273,33.2290293 8.39049767,32.036379 C4.0159681,30.8437288 2.66453526e-15,22.987013 2.66453526e-15,22.987013 Z" id="Path-11-Copy-2"></path>
                                        <path d="M2.66453526e-15,34.4805195 C2.66453526e-15,34.4805195 3.52997431,34.681087 6.95255037,35.608899 C9.0180629,36.1688302 11.0444601,36.9936297 12.232254,38.19906 C15.388235,41.4019011 12.7650273,44.7225358 8.39049767,43.5298855 C4.0159681,42.3372353 2.66453526e-15,34.4805195 2.66453526e-15,34.4805195 Z" id="Path-11-Copy-3"></path>
                                    </g>
                                    <g id="Group-Copy" transform="translate(35.000000, 0.000000)" fill="#338B37">
                                        <path d="M2.66453526e-15,0 C2.66453526e-15,0 9.0762731,0.515699425 12.232254,3.71854052 C15.388235,6.92138161 12.7650273,10.2420163 8.39049767,9.04936603 C4.0159681,7.85671578 2.66453526e-15,0 2.66453526e-15,0 Z" id="Path-11"></path>
                                        <path d="M2.66453526e-15,11.4935065 C2.66453526e-15,11.4935065 9.0762731,12.0092059 12.232254,15.212047 C15.388235,18.4148881 12.7650273,21.7355228 8.39049767,20.5428725 C4.0159681,19.3502223 2.66453526e-15,11.4935065 2.66453526e-15,11.4935065 Z" id="Path-11-Copy"></path>
                                        <path d="M2.66453526e-15,22.987013 C2.66453526e-15,22.987013 9.0762731,23.5027124 12.232254,26.7055535 C15.388235,29.9083946 12.7650273,33.2290293 8.39049767,32.036379 C4.0159681,30.8437288 2.66453526e-15,22.987013 2.66453526e-15,22.987013 Z" id="Path-11-Copy-2"></path>
                                        <path d="M2.66453526e-15,34.4805195 C2.66453526e-15,34.4805195 3.52997431,34.681087 6.95255037,35.608899 C9.0180629,36.1688302 11.0444601,36.9936297 12.232254,38.19906 C15.388235,41.4019011 12.7650273,44.7225358 8.39049767,43.5298855 C4.0159681,42.3372353 2.66453526e-15,34.4805195 2.66453526e-15,34.4805195 Z" id="Path-11-Copy-3"></path>
                                    </g>
                                    <g id="Group" transform="translate(20.000000, 22.000000) scale(-1, 1) translate(-20.000000, -22.000000) translate(13.000000, 0.000000)" fill="#338B37">
                                        <path d="M8.81072992e-13,0 C8.81072992e-13,0 9.0762731,0.515699425 12.232254,3.71854052 C15.388235,6.92138161 12.7650273,10.2420163 8.39049767,9.04936603 C4.0159681,7.85671578 8.81072992e-13,0 8.81072992e-13,0 Z" id="Path-11"></path>
                                        <path d="M2.66453526e-15,11.4935065 C2.66453526e-15,11.4935065 9.0762731,12.0092059 12.232254,15.212047 C15.388235,18.4148881 12.7650273,21.7355228 8.39049767,20.5428725 C4.0159681,19.3502223 2.66453526e-15,11.4935065 2.66453526e-15,11.4935065 Z" id="Path-11-Copy"></path>
                                        <path d="M2.66453526e-15,22.987013 C2.66453526e-15,22.987013 9.0762731,23.5027124 12.232254,26.7055535 C15.388235,29.9083946 12.7650273,33.2290293 8.39049767,32.036379 C4.0159681,30.8437288 2.66453526e-15,22.987013 2.66453526e-15,22.987013 Z" id="Path-11-Copy-2"></path>
                                        <path d="M2.66453526e-15,34.4805195 C2.66453526e-15,34.4805195 9.0762731,34.9962189 12.232254,38.19906 C15.388235,41.4019011 12.7650273,44.7225358 8.39049767,43.5298855 C4.0159681,42.3372353 2.66453526e-15,34.4805195 2.66453526e-15,34.4805195 Z" id="Path-11-Copy-3"></path>
                                    </g>
                                    <g id="Group-Copy-2" transform="translate(55.000000, 22.000000) scale(-1, 1) translate(-55.000000, -22.000000) translate(48.000000, 0.000000)" fill="#338B37">
                                        <path d="M8.81072992e-13,0 C8.81072992e-13,0 9.0762731,0.515699425 12.232254,3.71854052 C15.388235,6.92138161 12.7650273,10.2420163 8.39049767,9.04936603 C4.0159681,7.85671578 8.81072992e-13,0 8.81072992e-13,0 Z" id="Path-11"></path>
                                        <path d="M2.66453526e-15,11.4935065 C2.66453526e-15,11.4935065 9.0762731,12.0092059 12.232254,15.212047 C15.388235,18.4148881 12.7650273,21.7355228 8.39049767,20.5428725 C4.0159681,19.3502223 2.66453526e-15,11.4935065 2.66453526e-15,11.4935065 Z" id="Path-11-Copy"></path>
                                        <path d="M2.66453526e-15,22.987013 C2.66453526e-15,22.987013 9.0762731,23.5027124 12.232254,26.7055535 C15.388235,29.9083946 12.7650273,33.2290293 8.39049767,32.036379 C4.0159681,30.8437288 2.66453526e-15,22.987013 2.66453526e-15,22.987013 Z" id="Path-11-Copy-2"></path>
                                        <path d="M2.66453526e-15,34.4805195 C2.66453526e-15,34.4805195 9.0762731,34.9962189 12.232254,38.19906 C15.388235,41.4019011 12.7650273,44.7225358 8.39049767,43.5298855 C4.0159681,42.3372353 2.66453526e-15,34.4805195 2.66453526e-15,34.4805195 Z" id="Path-11-Copy-3"></path>
                                    </g>
                                    <rect id="Rectangle-15" fill="#1B5E20" x="13" y="6" width="0.747919432" height="52.1038961" rx="0.373959716"></rect>
                                    <rect id="Rectangle-15-Copy" fill="#1B5E20" x="48" y="6" width="0.747919432" height="52.1038961" rx="0.373959716"></rect>
                                </g>
                            </g>
                        </g>
                    </g>
                    <circle id="Oval-19" fill="#F86C3F" cx="70" cy="50" r="5"></circle>
                    <circle id="Oval-19-Copy" fill="#F86C3F" cx="62" cy="42" r="5"></circle>
                    <circle id="Oval-19-Copy-2" fill="#F86C3F" cx="26" cy="37" r="5"></circle>
                    <circle id="Oval-19-Copy-3" fill="#F86C3F" cx="31" cy="60" r="5"></circle>
                    <circle id="Oval-19-Copy-4" fill="#F86C3F" cx="36" cy="48" r="5"></circle>
                </g>
            </g>
        </g>
    </g>
</svg>