<?xml version="1.0" encoding="UTF-8"?>
<svg width="288px" height="48px" viewBox="0 0 288 48" version="1.1" xmlns="http://www.w3.org/2000/svg" xmlns:xlink="http://www.w3.org/1999/xlink">
    <!-- Generator: Sketch 41.1 (35376) - http://www.bohemiancoding.com/sketch -->
    <title>header icons</title>
    <desc>Created with Sketch.</desc>
    <defs>
        <path d="M19.8979343,41 L19.8979343,30.0024733 C19.8979343,29.4488226 20.3389328,29 20.9037138,29 L27.094589,29 C27.6500656,29 28.1003684,29.455761 28.1003684,30.0024733 L28.1003684,41 L37.3516379,41 C37.9049019,41 38.353411,40.5553691 38.353411,39.9991283 L38.353411,25 L43.5031479,25 C44.0565862,25 44.1664239,24.7025943 43.7510946,24.338023 L23.9991514,7 L4.24720819,24.338023 C3.83070707,24.7036228 3.93549031,25 4.49515485,25 L9.64489175,25 L9.64489175,39.9991283 C9.64489175,40.5518945 10.0854522,41 10.6466649,41 L19.8979343,41 Z" id="path-1"></path>
        <mask id="mask-2" maskContentUnits="userSpaceOnUse" maskUnits="objectBoundingBox" x="-1" y="-1" width="42" height="36">
            <rect x="3" y="6" width="42" height="36" fill="white"></rect>
            <use xlink:href="#path-1" fill="black"></use>
        </mask>
        <circle id="path-3" cx="24" cy="21" r="14"></circle>
        <mask id="mask-4" maskContentUnits="userSpaceOnUse" maskUnits="objectBoundingBox" x="-1" y="-1" width="30" height="30">
            <rect x="9" y="6" width="30" height="30" fill="white"></rect>
            <use xlink:href="#path-3" fill="black"></use>
        </mask>
        <path d="M25,40.1337784 L27.657545,37.6356862 C27.85875,37.4465535 28.1751812,37.45634 28.3643138,37.657545 C28.5534465,37.85875 28.54366,38.1751812 28.342455,38.3643138 L24.842455,41.6543138 C24.6499924,41.8352287 24.3500076,41.8352287 24.157545,41.6543138 L20.657545,38.3643138 C20.45634,38.1751812 20.4465535,37.85875 20.6356862,37.657545 C20.8248188,37.45634 21.14125,37.4465535 21.342455,37.6356862 L24,40.1337784 L24,32.9096974 C24,32.6834278 24.2238576,32.5 24.5,32.5 C24.7761424,32.5 25,32.6834278 25,32.9096974 L25,40.1337784 Z" id="path-5"></path>
        <mask id="mask-6" maskContentUnits="userSpaceOnUse" maskUnits="objectBoundingBox" x="-1" y="-1" width="10.000003" height="11.29">
            <rect x="19.4999985" y="31.5" width="10.000003" height="11.29" fill="white"></rect>
            <use xlink:href="#path-5" fill="black"></use>
        </mask>
        <path d="M16.1399056,28.9924982 C16.3255703,24.5783633 20.0667936,21 24.4760813,21 L24.1714593,21 C28.7579754,21 32.4760813,24.7297356 32.4760813,29.3052558 L32.4760813,35.820966 C32.4760813,36.3742382 32.0391148,36.9398121 31.5118411,37.0810625 L28.2219357,37.9623895 C26.0827735,38.535446 22.6208308,38.5594018 20.4792986,38.0133025 L16.773384,37.0682794 C16.2416277,36.9326794 15.8297542,36.3662738 15.8521857,35.8329698 L16.1399056,28.9924982 Z" id="path-7"></path>
        <mask id="mask-8" maskContentUnits="userSpaceOnUse" maskUnits="objectBoundingBox" x="0" y="0" width="16.62477" height="18" fill="white">
            <use xlink:href="#path-7"></use>
        </mask>
        <path d="M0.130859375,11.190918 C0.130859375,11.190918 2.82422925,8.91892817 5.7175293,9.00249425 C8.61082935,9.08606032 10.9658446,10.4157196 11.7209473,14.2043985 C12.7081299,19.1575235 12.3815918,21.6610636 12.2322998,21.8218302 C12.0830078,21.9825968 11.8742676,23.2583536 7.75366211,23.2583536 L3.69204659,23.2583536 C3.69204659,23.2583536 3.89428711,17.331962 3.23449707,15.1768107 C2.57470703,13.0216593 0.130859375,11.190918 0.130859375,11.190918 Z" id="path-9"></path>
        <mask id="mask-10" maskContentUnits="userSpaceOnUse" maskUnits="objectBoundingBox" x="0" y="0" width="12.2748689" height="14.2581094" fill="white">
            <use xlink:href="#path-9"></use>
        </mask>
        <path d="M0.130859375,11.190918 C0.130859375,11.190918 2.82422925,8.91892817 5.7175293,9.00249425 C8.61082935,9.08606032 10.9658446,10.4157196 11.7209473,14.2043985 C12.7081299,19.1575235 12.3815918,21.6610636 12.2322998,21.8218302 C12.0830078,21.9825968 11.8742676,23.2583536 7.75366211,23.2583536 L3.69204659,23.2583536 C3.69204659,23.2583536 3.89428711,17.331962 3.23449707,15.1768107 C2.57470703,13.0216593 0.130859375,11.190918 0.130859375,11.190918 Z" id="path-11"></path>
        <mask id="mask-12" maskContentUnits="userSpaceOnUse" maskUnits="objectBoundingBox" x="0" y="0" width="12.2748689" height="14.2581094" fill="white">
            <use xlink:href="#path-11"></use>
        </mask>
    </defs>
    <g id="Page-1" stroke="none" stroke-width="1" fill="none" fill-rule="evenodd">
        <g id="header-icons">
            <g id="Group-2-Copy">
                <use id="Shape" stroke="#212121" mask="url(#mask-2)" stroke-width="2" xlink:href="#path-1"></use>
                <rect id="Rectangle-26" x="0" y="0" width="48" height="48"></rect>
            </g>
            <g id="Group-4-Copy" transform="translate(48.000000, 0.000000)">
                <g id="Group-28" transform="translate(17.000000, 5.000000)"></g>
                <g id="Group-3" transform="translate(9.000000, 7.000000)">
                    <g id="Group-2" transform="translate(0.759804, 22.851852)" fill="#212121">
                        <path d="M9.02536522,0.430998278 C5.9311182,1.51626743 5.47936205,4.63862602 3.95191319,5.29056362 C2.42446434,5.94250123 0.201771893,5.2822729 0.201771893,4.15053516 C0.201771893,3.01879742 -0.779569431,5.77434272 1.58617188,7.16186602 C3.95191319,8.54938931 11.8259055,9.02756312 14.0468588,4.59432272 C16.267812,0.161082311 12.1196122,-0.654270874 9.02536522,0.430998278 Z" id="Path-20"></path>
                        <path d="M23.1476808,0.430998278 C20.0534338,1.51626743 19.6016776,4.63862602 18.0742288,5.29056362 C16.5467799,5.94250123 14.3240875,5.2822729 14.3240875,4.15053516 C14.3240875,3.01879742 13.3427462,5.77434272 15.7084875,7.16186602 C18.0742288,8.54938931 25.9482211,9.02756312 28.1691744,4.59432272 C30.3901276,0.161082311 26.2419278,-0.654270874 23.1476808,0.430998278 Z" id="Path-20" transform="translate(21.459642, 4.067195) scale(-1, 1) translate(-21.459642, -4.067195) "></path>
                    </g>
                    <path d="M19.0363067,10.5221664 C18.9770866,10.5387992 18.9557673,10.6997107 18.9557673,10.6997107 C18.9557673,10.6997107 19.8690097,11.2311076 20.2327819,11.835423 C20.5965541,12.4397384 21.2867886,14.0798282 21.9086813,14.5017409 C22.530574,14.9236536 23.6505907,17.2727273 23.6505907,17.2727273 L23.3924702,13.0837732 L20.2327819,10.3410423 C20.2327819,10.3410423 19.4027581,10.4192431 19.0363067,10.5221664 Z" id="Path-23" fill="#212121"></path>
                    <path d="M4.53358585,2.4453125 C4.53358585,2.4453125 12.8729015,-1.23615054 17.8254685,0.604580966 C22.7780355,2.44531247 27.507067,6.90482992 29.0168676,12.5433239 C30.5266682,18.1818178 23.8566429,21.2436076 23.8566429,21.2436076 C23.8566429,21.2436076 23.982415,17.8565333 23.2472279,15.8790834 C22.8708585,14.8667538 22.1782743,14.3634603 21.4905215,13.4241829 C20.8348415,12.528708 20.0449882,10.7861875 18.9927408,10.6663919 C16.8367748,10.4209407 11.7457693,8.23277699 11.7457693,8.23277699 L5.125696,5.98384233 L4.53358585,2.4453125 Z" id="Path-21" fill="#727272"></path>
                    <path d="M1.13863072,13.8535156 C1.13863072,13.8535156 1.88666261,19.4765625 6.33542751,21.8196023 C6.4317636,21.818892 5.55349959,15.014027 6.94359367,13.654652 C8.33368775,12.295277 8.18829162,11.6161222 8.18829162,11.6161222 L1.88666261,12.5843395 L1.13863072,13.8535156 Z" id="Path-19" fill="#727272"></path>
                    <path d="M2.952782,6.45862926 C2.952782,6.45862926 3.59537939,1.44406961 5.39365305,2.53480114 C7.1919267,3.62553266 8.01738426,4.76189631 8.01738426,4.76189631 L8.52867913,6.00887784 L4.0431638,7.86203835 L2.952782,6.45862926 Z" id="Path-20" fill="#212121"></path>
                    <path d="M7.33634164,13.235973 L1.15807634,13.7934126 C1.15807634,13.7934126 1.56384752,14.6545632 3.02378526,14.6545632 C4.48372301,14.6545632 4.96531425,14.5299183 5.80656023,14.2971413 C6.6478062,14.0643643 7.33634164,13.235973 7.33634164,13.235973 Z" id="Path-2" fill="#212121"></path>
                    <path d="M0.0508357215,13.2319778 C0.0508357213,13.9936078 5.94615835,15.1661932 8.98502676,12.0589489 C8.98502676,12.0589489 9.30436305,11.2350852 13.2066882,11.2350852 C17.1090134,11.2350852 17.9892399,11.2791193 18.8637575,10.8398437 C19.7382751,10.4005682 15.3378566,4.80610795 8.65141845,4.80610795 C7.68948476,4.76633523 5.33424579,7.0706676 4.05012141,6.66690341 C2.76599702,6.26313922 1.58855594,6.96803993 1.15111874,7.81534091 C0.713681532,8.66264188 0.355454002,9.48259959 0.355454002,11.4140625 C0.355454003,13.3455254 0.0508357217,12.4703479 0.0508357215,13.2319778 Z" id="Path-18" fill="#B6B6B6"></path>
                    <path d="M24.5282303,4.9420277 C24.5282303,4.9420277 27.3528794,12.8691525 26.5104458,15.2471591 C25.6019676,17.8115954 24.0294186,18.890625 23.9313925,18.890625 C23.7424668,18.890625 23.8835813,21.2182173 23.8835813,21.2182173 C23.8835813,21.2182173 28.7649666,19.1960227 29.187775,14.7308239 C29.6105833,10.265625 24.5282303,4.9420277 24.5282303,4.9420277 Z" id="Path-25" fill="#B6B6B6"></path>
                </g>
                <rect id="Rectangle-26" x="0" y="0" width="48" height="48"></rect>
            </g>
            <g id="Group-4-Copy" transform="translate(96.000000, 0.000000)">
                <g id="Group-3" transform="translate(10.000000, 9.000000)">
                    <g id="Group-29">
                        <path d="M5.25341797,2.79950494 C5.25341797,2.79950494 9.65429688,-0.41217219 12.0771484,0.0960705446 C14.5,0.604313279 15.3874512,1.52158108 16.7783203,1.52158106 C18.1691895,1.52158105 25.4279785,1.7394802 26.7507324,5.16738871 C28.0734863,8.59529723 28.0751953,9.37940893 28.6386719,9.93819616 C29.2021484,10.4969834 28.9841309,15.2643108 28.4890137,17.5061881 C27.9938965,19.7480654 26.3149414,22.4877011 26.3149414,22.4877011 C26.3149414,22.4877011 26.3615723,12.7265624 24.4970703,10.4756343 C22.6325684,8.22470616 18.4812012,7.3985921 17.1787109,7.11502166 C15.8762207,6.83145121 14.060791,7.11502159 12.5854492,7.11502169 C11.1101074,7.11502179 8.13623047,2.79950495 8.13623047,2.79950495 L5.25341797,2.79950494 Z" id="Path-5" fill="#3E3E3E"></path>
                        <path d="M11.9599536,3.81161538 C13.9299104,4.70902963 15.0647725,5.33867195 15.0647725,6.1653158 C15.0647725,7.60017171 12.1862991,9.74898883 9.66017253,10.536538 C7.13404594,11.3240871 5.09973153,11.9262124 5.09973153,11.9262124 C5.09973153,11.9262124 3.96063744,13.3427272 3.96063744,14.6693259 C3.96063744,15.9959246 3.16347489,17.5611811 3.16347489,19.1669225 C3.16347489,20.7726638 3.43554665,21.1743787 3.43554665,22.1017229 C3.43554665,23.029067 3.29963778,24.0214997 3.29963778,24.0214997 C3.29963778,24.0214997 2.35386453,21.7617414 1.9941506,20.2557578 C1.63443668,18.7497742 1.15862864,16.620193 1.15862864,16.620193 C1.15862864,16.620193 -1.84533871,4.59715148 5.65911715,2.68251908 C8.84013383,1.87093758 10.5105368,3.15133324 11.9599536,3.81161538 Z" id="Path-4" fill="#000000"></path>
                        <path d="M11.0161132,2.85751861 C12.9093405,3.78856481 13.9999999,4.44180392 13.9999999,5.2994275 C13.9999999,6.7880568 11.2336426,9.01740408 8.8059082,9.83446782 C6.37817383,10.6515316 4.42309562,11.2762224 4.42309562,11.2762224 C4.42309562,11.2762224 3.32836906,12.7458233 3.32836906,14.1221382 C3.32836906,15.4984532 2.56225586,17.12237 2.56225586,18.788289 C2.56225586,20.4542079 2.82373047,20.8709777 2.82373047,21.8330755 C2.82373047,22.7951733 3.32836906,23.7814054 3.32836906,23.7814054 C3.32836906,23.7814054 1.78417969,21.4803527 1.43847656,19.9179301 C1.09277344,18.3555074 0.635498047,16.146117 0.635498047,16.146117 C0.635498047,16.146117 -2.25146527,3.67249386 4.96069327,1.68610772 C8.01780987,0.844110972 9.62315096,2.1724914 11.0161132,2.85751861 Z" id="Path-4" fill="#3F3F3F"></path>
                        <path d="M24.5849609,3.07681002 C24.5849609,3.07681002 26.3117065,5.28266166 26.5003662,6.25351949 C26.6890259,7.22437732 27.6642086,9.94973024 27.864502,10.3974319 C28.0725,10.8623554 28.4478123,13.2782315 28.1762695,15.6143642 C27.8677288,18.2687965 26.8660586,20.908431 26.3840332,22.0486541 C25.4777832,24.1923731 27.7890625,20.5774288 28.3088379,18.2777692 C28.8286133,15.9781095 29.1356201,11.1714496 28.8175049,10.2534421 C28.4993896,9.33543472 28.6213379,10.2897587 28.1762695,8.97934715 C27.9953722,8.44673237 27.4973617,7.6958159 27.234553,6.89033203 C26.8507639,5.71405466 26.2707686,4.3059449 25.8414001,3.95595703 C25.1180115,3.36630666 24.5849609,3.07681002 24.5849609,3.07681002 Z" id="Path-6" fill="#000000" opacity="0.411847015"></path>
                        <path d="M7.06488037,1.51102259 C7.06488037,1.51102259 8.87714048,0.338449067 10.5043335,0.156056614 C11.0405273,0.0959545182 11.5075819,-0.000449028496 11.7496948,0.0259900987 C13.4891121,0.215937328 15.0993652,1.09924196 15.0993652,1.09924196 C15.0993652,1.09924196 15.8081901,1.36456003 16.1164551,1.44865798 C16.5385775,1.56381746 17.369812,1.51102262 17.369812,1.51102262 C17.369812,1.51102262 16.253418,2.13420483 15.376709,1.61672339 C14.5,1.09924196 12.491394,0.492651612 11.541687,0.492651612 C10.59198,0.492651612 8.57739258,1.57820235 8.00927734,1.57820235 C7.44116211,1.57820235 7.06488037,1.51102259 7.06488037,1.51102259 Z" id="Path-7" fill="#212121" opacity="0.639342351"></path>
                    </g>
                    <g id="Group-2" transform="translate(6.094203, 26.400000)" fill="#212121">
                        <path d="M9.14463275,0.199658203 C7.73074676,0.198359657 9.14463275,1.46312098 9.14463275,1.46312098 C9.14463275,1.46312098 9.70822663,2.091878 10.5591365,2.09250554 C11.4100464,2.09313309 13.1101154,1.47989671 13.8371059,1.64818643 C14.0218555,1.6909538 15.0491143,2.20371798 15.5200587,2.39002787 C16.1443214,2.63699186 16.8466413,2.47788241 16.6537357,2.09250554 C16.5740725,1.93335857 15.9749321,1.85199014 15.7563637,1.64818643 C14.7019869,0.665034586 14.9062493,0.325858001 13.8371063,0.199658199 C12.452447,-0.00587441222 10.7574832,0.201139483 9.14463275,0.199658203 Z" id="Path-8"></path>
                        <path d="M0.787073042,0.199658203 C-0.626812956,0.198359657 0.787073042,1.46312098 0.787073042,1.46312098 C0.787073042,1.46312098 1.35066692,2.091878 2.20157681,2.09250554 C3.05248669,2.09313309 4.75255573,1.47989671 5.47954617,1.64818643 C5.66429581,1.6909538 6.6915546,2.20371798 7.16249902,2.39002787 C7.78676169,2.63699186 8.48908156,2.47788241 8.29617598,2.09250554 C8.21651282,1.93335857 7.61737241,1.85199014 7.39880403,1.64818643 C6.34442721,0.665034586 6.54868957,0.325858001 5.47954657,0.199658199 C4.09488731,-0.00587441222 2.39992352,0.201139483 0.787073042,0.199658203 Z" id="Path-8" transform="translate(4.243685, 1.308482) scale(-1, 1) translate(-4.243685, -1.308482) "></path>
                    </g>
                </g>
                <rect id="Rectangle-26" x="0" y="0" width="48" height="48"></rect>
            </g>
            <g id="Group-2-Copy" transform="translate(144.000000, 0.000000)">
                <path d="M9,39.994357 C9,40.5497583 9.31662673,40.6865395 9.70971251,40.2973846 L11.5,38.525 L13.2902875,40.2973846 C13.6822509,40.6854284 14.3166267,40.6865395 14.7097125,40.2973846 L16.5,38.525 L18.2902875,40.2973846 C18.6822509,40.6854284 19.3166267,40.6865395 19.7097125,40.2973846 L21.5,38.525 L23.2902875,40.2973846 C23.6822509,40.6854284 24.3166267,40.6865395 24.7097125,40.2973846 L26.5,38.525 L28.2902875,40.2973846 C28.6822509,40.6854284 29.3166267,40.6865395 29.7097125,40.2973846 L31.5,38.525 L33.2902875,40.2973846 C33.6822509,40.6854284 34.3166267,40.6865395 34.7097125,40.2973846 L36.5,38.525 L38.2902875,40.2973846 C38.6822509,40.6854284 39,40.5584559 39,39.994357 L39,9.00564303 C39,8.45024172 38.5562834,8 38.0001925,8 L34,8 L29,8 L24,8 L19,8 L14,8 L9.99980749,8 C9.44762906,8 9,8.44154413 9,9.00564303 L9,39.994357 Z" id="Shape" stroke="#212121"></path>
                <polygon id="Path" fill="#B6B6B6" points="34 33.45 14 33.45 14 31.45 34 31.45"></polygon>
                <polygon id="Path" fill="#B6B6B6" points="34 26.85 14 26.85 14 24.85 34 24.85"></polygon>
                <polygon id="Path" fill="#B6B6B6" points="34 20 14 20 14 18 34 18"></polygon>
                <polygon id="Path-Copy" fill="#212121" points="39 13 9 13 9 8 39 8"></polygon>
                <rect id="Rectangle-26" x="0" y="0" width="48" height="48"></rect>
            </g>
            <g id="Group-3-Copy" transform="translate(192.000000, 0.000000)">
                <use id="Oval-4" stroke="#212121" mask="url(#mask-4)" stroke-width="2" xlink:href="#path-3"></use>
                <g id="Combined-Shape">
                    <use fill="#212121" fill-rule="evenodd" xlink:href="#path-5"></use>
                    <use stroke="#FFFFFF" mask="url(#mask-6)" stroke-width="2" xlink:href="#path-5"></use>
                </g>
                <g id="Group-2" transform="translate(19.000000, 11.000000)" fill="#212121">
                    <path d="M0,0.99180311 C0,0.444045377 0.454963235,0 0.996115471,0 L9.59211982,0 C10.1422592,0 10.5882353,0.455305576 10.5882353,0.99180311 L10.5882353,19.0081969 C10.5882353,19.5559546 10.1332721,20 9.59211982,20 L0.996115471,20 C0.445976087,20 0,19.5446944 0,19.0081969 L0,0.99180311 Z M3.56797162,0.95028148 L7.09738339,0.95028148 L7.09738339,1.53851677 L3.56797162,1.53851677 L3.56797162,0.95028148 Z M5.28894761,19.4093233 C5.61382099,19.4093233 5.8771829,19.1459614 5.8771829,18.821088 C5.8771829,18.4962146 5.61382099,18.2328527 5.28894761,18.2328527 C4.96407423,18.2328527 4.70071232,18.4962146 4.70071232,18.821088 C4.70071232,19.1459614 4.96407423,19.4093233 5.28894761,19.4093233 Z" id="Combined-Shape"></path>
                </g>
                <rect id="Rectangle-31" fill="#B6B6B6" x="20.1764706" y="13.3529412" width="8.23529412" height="15.2941176"></rect>
                <rect id="Rectangle-26" x="0" y="0" width="48" height="48"></rect>
            </g>
            <g id="Group-3-Copy" transform="translate(240.000000, 0.000000)">
                <use id="Rectangle-33" stroke="#212121" mask="url(#mask-8)" stroke-width="2" xlink:href="#path-7"></use>
                <ellipse id="Oval-6" fill="#212121" cx="24.5" cy="15" rx="4.5" ry="5"></ellipse>
                <g id="Group-2" transform="translate(31.000000, 11.000000)">
                    <ellipse id="Oval-6-Copy" fill="#212121" cx="5.5" cy="4" rx="3.5" ry="4"></ellipse>
                    <use id="Path-28" stroke="#212121" mask="url(#mask-10)" stroke-width="2" xlink:href="#path-9"></use>
                </g>
                <g id="Group-2" transform="translate(11.500000, 23.000000) scale(-1, 1) translate(-11.500000, -23.000000) translate(5.000000, 11.000000)">
                    <ellipse id="Oval-6-Copy" fill="#212121" cx="5.5" cy="4" rx="3.5" ry="4"></ellipse>
                    <use id="Path-28" stroke="#212121" mask="url(#mask-12)" stroke-width="2" xlink:href="#path-11"></use>
                </g>
                <rect id="Rectangle-26" x="0" y="0" width="48" height="48"></rect>
            </g>
        </g>
    </g>
</svg>