<?xml version="1.0" encoding="UTF-8"?>
<svg width="21px" height="18px" viewBox="0 0 21 18" version="1.1" xmlns="http://www.w3.org/2000/svg" xmlns:xlink="http://www.w3.org/1999/xlink">
    <!-- Generator: sketchtool 41.2 (35397) - http://www.bohemiancoding.com/sketch -->
    <title>6D03165A-41A9-4AFD-B070-57137B9BF028</title>
    <desc>Created with sketchtool.</desc>
    <defs></defs>
    <g id="Page-1" stroke="none" stroke-width="1" fill="none" fill-rule="evenodd">
        <g id="About-2-2" transform="translate(-484.000000, -1428.000000)">
            <g id="Group-5-Copy" transform="translate(426.000000, 1351.000000)">
                <g id="logo_twitter" transform="translate(54.322581, 73.000000)">
                    <polygon id="Bounds" points="0 0 26.7225806 0 26.7225806 26.6 0 26.6"></polygon>
                    <path d="M21.4984583,7.45344504 C22.3478025,6.91991911 22.9995154,6.07393471 23.3053734,5.06616351 C22.5101425,5.56140402 21.6313889,5.919558 20.6938164,6.11345515 C19.9456406,5.27364582 18.8763139,4.75 17.6928786,4.75 C15.4224709,4.75 13.5826173,6.68279648 13.5826173,9.06637296 C13.5826173,9.40476672 13.6167322,9.73451538 13.6873148,10.0494439 C10.2711159,9.86913188 7.24194506,8.15246281 5.21269468,5.53917377 C4.85860519,6.17891088 4.65626834,6.91991911 4.65626834,7.71032789 C4.65626834,9.20716452 5.38209297,10.5286292 6.48553463,11.3042178 C5.81147059,11.2819876 5.17740337,11.0856204 4.62215341,10.7645168 L4.62215341,10.8176224 C4.62215341,12.9097357 6.03851136,14.6548101 7.92189098,15.0500144 C7.57603614,15.1512856 7.21371201,15.2019211 6.83727136,15.2019211 C6.57258653,15.2019211 6.31378358,15.1759858 6.06439165,15.1253503 C6.58670305,16.8395493 8.1054058,18.0893832 9.90526266,18.1227286 C8.49713935,19.2811715 6.72433917,19.9703091 4.79860996,19.9703091 C4.46687164,19.9703091 4.13866245,19.9517839 3.81751152,19.9110285 C5.63736679,21.1349271 7.79837139,21.85 10.1205397,21.85 C17.684644,21.85 21.8184329,15.2723169 21.8184329,9.56778853 C21.8184329,9.38006645 21.8160801,9.19357937 21.8078455,9.00956233 C22.611311,8.40070056 23.3100789,7.63993211 23.859447,6.77418749 C23.1218586,7.11752131 22.3289805,7.34970389 21.4984583,7.45344504 Z" id="Shape" fill="#FFFFFF"></path>
                </g>
            </g>
        </g>
    </g>
</svg>